<?xml version="1.0" encoding="UTF-8"?>
<svg id="Layer_3" data-name="Layer 3" xmlns="http://www.w3.org/2000/svg" viewBox="0 0 474.99 186.46">
  <defs>
    <style>
      .cls-1 {
        font-family: MyriadConceptRoman-Regular, 'Myriad Variable Concept';
        font-variation-settings: 'wght' 400, 'wdth' 100;
      }

      .cls-2 {
        fill: #dad235;
      }

      .cls-2, .cls-3, .cls-4, .cls-5 {
        stroke-width: 0px;
      }

      .cls-6 {
        fill: #231f20;
        font-size: 34.42px;
      }

      .cls-7 {
        font-family: MyriadPro-Regular, 'Myriad Pro';
        letter-spacing: 0em;
      }

      .cls-3 {
        fill: #fff;
      }

      .cls-4 {
        fill: #221f1f;
      }

      .cls-5 {
        fill: #4e4d50;
      }
    </style>
  </defs>
  <rect class="cls-2" x="285.05" y="71.53" width="162.42" height="90.25" rx="17.46" ry="17.46"/>
  <rect class="cls-5" x="372.13" y="83.75" width="16.05" height="59.09" transform="translate(59.61 346.96) rotate(-52.69)"/>
  <path class="cls-5" d="M334.22,139.29c-4.8-2.48-9.6-4.96-14.4-7.44l-.82-.42c7.16-13.85,14.32-27.7,21.48-41.56l15.22,7.87-21.48,41.56Z"/>
  <ellipse class="cls-5" cx="409.49" cy="136.62" rx="13.84" ry="13.2"/>
  <ellipse class="cls-4" cx="409.49" cy="136.45" rx="8.15" ry="7.94"/>
  <ellipse class="cls-5" cx="324.43" cy="136.49" rx="13.84" ry="13.07"/>
  <ellipse class="cls-4" cx="324.13" cy="136.49" rx="8.15" ry="7.86"/>
  <text class="cls-6" transform="translate(263.39 148.54) scale(1.11 1)"><tspan class="cls-1" x="0" y="0"> </tspan><tspan class="cls-7" x="7.3" y="0" xml:space="preserve">  </tspan></text>
  <ellipse class="cls-5" cx="155.05" cy="65.58" rx="1.8" ry="1.98"/>
  <ellipse class="cls-5" cx="147.15" cy="55.22" rx="2.66" ry="2.86"/>
  <ellipse class="cls-5" cx="147.12" cy="42.95" rx="3.59" ry="3.89"/>
  <rect class="cls-2" x="152.96" y="39.77" width="31.31" height="23.1" rx="3.44" ry="3.44"/>
  <rect class="cls-2" x="158.06" y="22.85" width="21.13" height="15.36" rx="2.28" ry="2.28"/>
  <ellipse class="cls-5" cx="163.93" cy="30.32" rx="3.03" ry="3.32"/>
  <ellipse class="cls-5" cx="173.03" cy="30.32" rx="3.03" ry="3.32"/>
  <ellipse class="cls-5" cx="168.68" cy="10.42" rx="1.5" ry="1.65"/>
  <polygon class="cls-5" points="168.72 10.6 170.02 17.77 167.42 17.71 168.72 10.6"/>
  <rect class="cls-5" x="164.58" y="16.01" width="8.25" height="2.49"/>
  <rect class="cls-2" x="163.23" y="19.35" width="10.95" height="2.6"/>
  <ellipse class="cls-5" cx="187.35" cy="31.13" rx="1.5" ry="1.65"/>
  <polygon class="cls-5" points="187.18 31.17 180.65 32.6 180.71 29.75 187.18 31.17"/>
  <rect class="cls-5" x="176.59" y="30.02" width="9.05" height="2.27" transform="translate(212.27 -149.96) rotate(90)"/>
  <ellipse class="cls-5" cx="149.83" cy="31.21" rx="1.5" ry="1.65"/>
  <polygon class="cls-5" points="149.99 31.17 156.53 29.74 156.47 32.59 149.99 31.17"/>
  <rect class="cls-5" x="151.48" y="30" width="9.05" height="2.37" transform="translate(124.82 187.19) rotate(-90)"/>
  <ellipse class="cls-4" cx="173.03" cy="30.32" rx="1.39" ry="1.53"/>
  <ellipse class="cls-4" cx="163.93" cy="30.32" rx="1.39" ry="1.53"/>
  <rect class="cls-2" x="157.19" y="58.82" width="22.79" height="7.22" rx="1.07" ry="1.07"/>
  <rect class="cls-5" x="157.83" y="44.14" width="21.4" height="10.59"/>
  <rect class="cls-5" x="166.04" y="57.33" width="5.05" height="1.38"/>
  <ellipse class="cls-4" cx="147.12" cy="42.9" rx="2.13" ry="2.34"/>
  <ellipse class="cls-4" cx="147.15" cy="55.22" rx="1.59" ry="1.81"/>
  <path class="cls-5" d="M148.9,53.27h-3.61v-7.67h3.61v7.67Z"/>
  <ellipse class="cls-5" cx="196.64" cy="32.55" rx="2.86" ry="2.72" transform="translate(67.24 184.16) rotate(-58.92)"/>
  <ellipse class="cls-5" cx="190.19" cy="42.95" rx="3.62" ry="3.89"/>
  <ellipse class="cls-4" cx="190.11" cy="42.95" rx="2.13" ry="2.34"/>
  <ellipse class="cls-4" cx="196.68" cy="32.58" rx="1.81" ry="1.59" transform="translate(67.24 184.2) rotate(-58.92)"/>
  <path class="cls-5" d="M194.07,33.28c.94.56,1.87,1.13,2.81,1.69l.16.1c-1.32,2.19-2.64,4.38-3.96,6.57l-2.97-1.79,3.96-6.57Z"/>
  <ellipse class="cls-4" cx="155.05" cy="65.54" rx="1.07" ry="1.17"/>
  <ellipse class="cls-5" cx="181.98" cy="65.54" rx="1.8" ry="1.98"/>
  <ellipse class="cls-4" cx="181.98" cy="65.49" rx="1.07" ry="1.17"/>
  <rect class="cls-2" x="152.88" y="68.37" width="10.25" height="3.02" rx=".45" ry=".45"/>
  <rect class="cls-2" x="152.88" y="72.2" width="10.25" height="3.1" rx=".46" ry=".46"/>
  <rect class="cls-2" x="173.99" y="68.37" width="10.25" height="3.02" rx=".45" ry=".45"/>
  <rect class="cls-2" x="173.99" y="72.2" width="10.25" height="3.1" rx=".46" ry=".46"/>
  <rect class="cls-5" x="151.08" y="76.43" width="13.81" height="5.78"/>
  <rect class="cls-5" x="172.45" y="76.45" width="13.82" height="5.76"/>
  <ellipse class="cls-5" cx="350.97" cy="92.48" rx="15.29" ry="14.21"/>
  <ellipse class="cls-4" cx="350.65" cy="92.48" rx="9.01" ry="8.55"/>
  <path class="cls-3" d="M193.15,16.55c-1.16.49-2.32.99-3.46,1.54l2.52,4.32c.52-.3,1.03-.6,1.55-.91.54-.32.98-.89,1.15-1.49.1-.33.12-.66.04-1-.02-.33-.11-.64-.3-.93-.34-.53-.86-1-1.49-1.15s-1.32-.08-1.93.25-1.25.65-1.9.93l3.03,3.93c.17-.17.35-.33.53-.48l-.51.39c.22-.17.45-.32.69-.45.54-.3.99-.9,1.15-1.49.1-.33.12-.66.04-1-.02-.33-.11-.64-.3-.93-.34-.53-.86-1-1.49-1.15s-1.32-.09-1.93.25-1.22.81-1.73,1.32c-.24.23-.42.49-.52.8-.16.3-.23.62-.22.96l.09.66c.08.33.23.61.45.85.11.19.26.34.45.45.24.22.52.37.85.45l.66.09c.45,0,.87-.12,1.26-.34.65-.27,1.28-.58,1.9-.93l-2.52-4.32c-.52.3-1.03.6-1.55.91-.54.32-.98.89-1.15,1.49-.1.33-.12.66-.04,1,.02.33.11.64.3.93.34.53.86,1,1.49,1.15l.66.09c.45,0,.87-.12,1.26-.34.9-.44,1.82-.85,2.74-1.24l-.6.25s.08-.03.12-.05c.33-.08.61-.23.85-.45.27-.18.49-.41.64-.7.18-.29.28-.6.3-.93.07-.33.06-.66-.04-1-.2-.6-.57-1.19-1.15-1.49l-.6-.25c-.44-.12-.89-.12-1.33,0h0Z"/>
  <path class="cls-3" d="M191.85,21.79c3.22,0,3.22-5,0-5s-3.22,5,0,5h0Z"/>
  <path class="cls-3" d="M191.85,21.79c3.22,0,3.22-5,0-5s-3.22,5,0,5h0Z"/>
  <path class="cls-3" d="M191.85,21.79c3.22,0,3.22-5,0-5s-3.22,5,0,5h0Z"/>
  <text/>
  <g>
    <path class="cls-5" d="M28.81,88.35h22.84c2.02,3.06,4.29,6.64,6.81,10.76v20.64l-2.42,3.99,2.31,3.87v20.22c0,.25-.08.38-.24.38h-10.72c-.16,0-.24-.13-.24-.38v-17.15h-7.29v17.15c0,.25-.07.38-.21.38h-10.85c-.16,0-.24-.13-.24-.38v-59.1c.02-.25.1-.38.24-.38ZM39.87,106.25v6.56h7.39v-6.56h-7.39Z"/>
    <path class="cls-5" d="M68.72,88.35h14.09c2.96,4.54,5.5,8.56,7.61,12.07v35.77c-2.85,4.65-5.39,8.66-7.61,12.02h-14.09c-2.94-4.51-5.48-8.52-7.61-12.02v-35.77c2.85-4.68,5.39-8.7,7.61-12.07ZM72.42,106.25v24.25h6.7v-24.25h-6.7Z"/>
    <path class="cls-5" d="M93.29,88.89h22.87c4.11,5.3,6.38,8.34,6.81,9.12v17.15c-1.45,2.07-2.26,3.11-2.42,3.11v.55c.16,0,.97,1.04,2.42,3.11v17.15c-.43.78-2.7,3.83-6.81,9.12h-22.87c-.14,0-.21-.13-.21-.38v-58.56c.02-.25.09-.38.21-.38ZM104.38,103.86v5.51h7.39v-5.51h-7.39ZM104.38,127.78v5.46h7.39v-5.46h-7.39Z"/>
    <path class="cls-5" d="M133.23,88.35h14.09c2.96,4.54,5.5,8.56,7.61,12.07v35.77c-2.85,4.65-5.39,8.66-7.61,12.02h-14.09c-2.94-4.51-5.48-8.52-7.61-12.02v-35.77c2.85-4.68,5.39-8.7,7.61-12.07ZM136.93,106.25v24.25h6.7v-24.25h-6.7Z"/>
    <path class="cls-5" d="M165.12,88.35h19.73c.16.06.24.18.24.38v17.15c0,.25-.08.38-.24.38h-16.03v24.25h16.03c.16.03.24.15.24.38v16.94c0,.25-.08.38-.24.38h-19.73c-2.78-4.23-5.29-8.18-7.53-11.85v-36.15c2.69-4.37,5.2-8.32,7.53-11.85Z"/>
    <path class="cls-5" d="M195.35,88.35h14.09c2.96,4.54,5.5,8.56,7.61,12.07v35.77c-2.85,4.65-5.39,8.66-7.61,12.02h-14.09c-2.94-4.51-5.48-8.52-7.61-12.02v-35.77c2.85-4.68,5.39-8.7,7.61-12.07ZM199.05,106.25v24.25h6.7v-24.25h-6.7Z"/>
    <path class="cls-5" d="M219.95,88.35h22.84c2.02,3.06,4.29,6.64,6.81,10.76v20.64l-2.42,3.99,2.31,3.87v20.22c0,.25-.08.38-.24.38h-10.72c-.16,0-.24-.13-.24-.38v-17.15h-7.29v17.15c0,.25-.07.38-.21.38h-10.85c-.16,0-.24-.13-.24-.38v-59.1c.02-.25.1-.38.24-.38ZM231.01,106.25v6.56h7.39v-6.56h-7.39Z"/>
    <path class="cls-5" d="M252.47,88.35h22.74c2.04,3.06,4.32,6.64,6.83,10.76v20.64c0,.14-2.31,3.78-6.94,10.93h-11.65v17.15c0,.25-.08.38-.24.38h-10.74c-.14,0-.21-.13-.21-.38v-59.1c.02-.25.09-.38.21-.38ZM263.45,106.25v6.56h7.39v-6.56h-7.39Z"/>
  </g>
</svg>